<svg width="40" height="41" viewBox="0 0 40 41" fill="none" xmlns="http://www.w3.org/2000/svg">
<rect y="0.5" width="40" height="40" rx="20" fill="#F1F1F1"/>
<path d="M12.4533 21.8838C11.3533 21.8838 10.4567 22.7805 10.4567 23.8805C10.4567 24.9805 11.3533 25.8771 12.4533 25.8771C13.5533 25.8771 14.45 24.9805 14.45 23.8805C14.45 22.7805 13.5533 21.8838 12.4533 21.8838ZM12.4533 25.1005C11.78 25.1005 11.2333 24.5538 11.2333 23.8805C11.2333 23.2071 11.78 22.6605 12.4533 22.6605C13.1267 22.6605 13.6733 23.2071 13.6733 23.8805C13.6733 24.5538 13.1267 25.1005 12.4533 25.1005ZM27.29 21.8838C26.19 21.8838 25.2933 22.7805 25.2933 23.8805C25.2933 24.9805 26.19 25.8771 27.29 25.8771C28.39 25.8771 29.2867 24.9805 29.2867 23.8805C29.2867 22.7805 28.39 21.8838 27.29 21.8838ZM27.29 25.1005C26.6167 25.1005 26.07 24.5538 26.07 23.8805C26.07 23.2071 26.6167 22.6605 27.29 22.6605C27.9633 22.6605 28.51 23.2071 28.51 23.8805C28.51 24.5538 27.9633 25.1005 27.29 25.1005Z" fill="#FF8500"/>
<path d="M7.15665 23.5135L8.84998 24.0568C8.94332 25.9668 10.5233 27.4935 12.4566 27.4935C14.39 27.4935 15.8567 26.0768 16.05 24.2668H23.7C23.8933 26.0768 25.43 27.4935 27.2933 27.4935C29.1567 27.4935 30.71 26.0601 30.89 24.2335C32.3233 23.6968 33.1367 22.9401 33.3067 21.9835C33.5866 20.3868 31.9033 18.8968 31.71 18.7335C29.3867 16.7535 26.8233 16.7201 26.1433 16.7501C23.09 14.2268 20.04 13.1635 17.0766 13.5935C13.7566 14.0735 11.4433 16.2868 10.3833 17.5268C10.2966 17.1901 10.14 16.8835 9.91332 16.6135C9.04332 15.5735 7.46998 15.4735 7.40332 15.4701C7.26998 15.4635 7.13998 15.5235 7.06332 15.6335C6.98665 15.7435 6.96998 15.8868 7.02332 16.0101C8.11665 18.5635 7.24665 19.4701 6.95332 19.6868C6.77665 19.8168 6.66998 20.0301 6.66998 20.2501V22.8401C6.66998 23.1468 6.86665 23.4168 7.15998 23.5101L7.15665 23.5135ZM12.4533 26.7168C10.89 26.7168 9.61665 25.4435 9.61665 23.8801C9.61665 22.3168 10.89 21.0435 12.4533 21.0435C14.0167 21.0435 15.29 22.3168 15.29 23.8801C15.29 25.4468 14.0167 26.7168 12.4533 26.7168ZM27.29 26.7168C25.7267 26.7168 24.4533 25.4435 24.4533 23.8801C24.4533 22.3135 25.7267 21.0401 27.29 21.0401C28.8533 21.0401 30.1266 22.3135 30.1266 23.8768C30.1266 25.4401 28.8533 26.7135 27.29 26.7135V26.7168ZM7.44332 20.2901C7.84665 19.9768 8.84998 18.8935 7.98665 16.3601C8.41332 16.4735 8.95998 16.6901 9.30998 17.1135C9.61998 17.4835 9.73665 17.9501 9.66332 18.5368C9.63998 18.7168 9.74332 18.8868 9.91332 18.9501C10.0833 19.0135 10.2733 18.9501 10.3733 18.8001C10.4 18.7635 12.9667 14.9701 17.19 14.3635C19.96 13.9668 22.8433 15.0035 25.76 17.4468C25.84 17.5135 25.9433 17.5468 26.0466 17.5368C26.0733 17.5368 28.81 17.2935 31.2 19.3268C31.2633 19.3801 32.7467 20.6601 32.5367 21.8501C32.43 22.4635 31.8633 22.9835 30.87 23.4001C30.6367 21.6335 29.1233 20.2601 27.29 20.2601C25.4567 20.2601 23.8933 21.6768 23.6967 23.4868H16.0466C15.8533 21.6768 14.3167 20.2601 12.4533 20.2601C10.59 20.2601 9.19332 21.5568 8.89665 23.2535L7.44332 22.7868V20.2868V20.2901Z" fill="#FF8500"/>
<path d="M13.1866 18.7768H24.0633C24.2033 18.7768 24.3333 18.7001 24.4 18.5801C24.4666 18.4601 24.4666 18.3101 24.3966 18.1901C24.3333 18.0868 22.84 15.6634 18.6366 15.5334C18.6333 15.5334 18.63 15.5334 18.6266 15.5334C14.4133 15.4101 12.91 18.0901 12.85 18.2034C12.7833 18.3234 12.7866 18.4701 12.8566 18.5868C12.9266 18.7034 13.0533 18.7768 13.19 18.7768H13.1866ZM19.0133 16.3301C21.2866 16.4901 22.59 17.3834 23.23 18.0001H19.0133V16.3301ZM18.2366 16.3068V17.9968H13.9666C14.58 17.3334 15.8933 16.3368 18.2366 16.3068Z" fill="#FF8500"/>
</svg>
