<svg width="22" height="22" viewBox="0 0 22 22" fill="none" xmlns="http://www.w3.org/2000/svg">
<path d="M4.81262 8.25008C4.81209 8.1596 4.82944 8.06991 4.86365 7.98614C4.89786 7.90238 4.94827 7.8262 5.01199 7.76196C5.07591 7.69752 5.15194 7.64637 5.23572 7.61147C5.3195 7.57656 5.40936 7.55859 5.50012 7.55859C5.59088 7.55859 5.68074 7.57656 5.76451 7.61147C5.84829 7.64637 5.92433 7.69752 5.98824 7.76196L11.0001 12.7807L16.012 7.76196C16.1415 7.6325 16.317 7.55977 16.5001 7.55977C16.5908 7.55977 16.6805 7.57762 16.7643 7.61231C16.848 7.64701 16.9241 7.69785 16.9882 7.76196C17.0523 7.82606 17.1032 7.90216 17.1379 7.98591C17.1726 8.06966 17.1904 8.15943 17.1904 8.25008C17.1904 8.43316 17.1177 8.60875 16.9882 8.73821L11.4882 14.2382C11.4243 14.3026 11.3483 14.3538 11.2645 14.3887C11.1807 14.4236 11.0909 14.4416 11.0001 14.4416C10.9094 14.4416 10.8195 14.4236 10.7357 14.3887C10.6519 14.3538 10.5759 14.3026 10.512 14.2382L5.01199 8.73821C4.94827 8.67397 4.89786 8.59778 4.86365 8.51402C4.82944 8.43025 4.81209 8.34056 4.81262 8.25008Z" fill="#CCC8C4"/>
</svg>
