<svg width="24" height="25" viewBox="0 0 24 25" fill="none" xmlns="http://www.w3.org/2000/svg">
<path d="M12.9999 12.2502C12.8099 12.2502 12.6199 12.1802 12.4699 12.0302C12.1799 11.7402 12.1799 11.2602 12.4699 10.9702L20.6699 2.77023C20.9599 2.48023 21.4399 2.48023 21.7299 2.77023C22.0199 3.06023 22.0199 3.54023 21.7299 3.83023L13.5299 12.0302C13.3799 12.1802 13.1899 12.2502 12.9999 12.2502Z" fill="#F1F1F1"/>
<path d="M22 8.05C21.59 8.05 21.25 7.71 21.25 7.3V3.25H17.2C16.79 3.25 16.45 2.91 16.45 2.5C16.45 2.09 16.79 1.75 17.2 1.75H22C22.41 1.75 22.75 2.09 22.75 2.5V7.3C22.75 7.71 22.41 8.05 22 8.05Z" fill="#F1F1F1"/>
<path d="M15 23.25H9C3.57 23.25 1.25 20.93 1.25 15.5V9.5C1.25 4.07 3.57 1.75 9 1.75H11C11.41 1.75 11.75 2.09 11.75 2.5C11.75 2.91 11.41 3.25 11 3.25H9C4.39 3.25 2.75 4.89 2.75 9.5V15.5C2.75 20.11 4.39 21.75 9 21.75H15C19.61 21.75 21.25 20.11 21.25 15.5V13.5C21.25 13.09 21.59 12.75 22 12.75C22.41 12.75 22.75 13.09 22.75 13.5V15.5C22.75 20.93 20.43 23.25 15 23.25Z" fill="#F1F1F1"/>
</svg>
