<svg width="257" height="114" viewBox="0 0 257 114" fill="none" xmlns="http://www.w3.org/2000/svg">
<g opacity="0.78">
<path d="M99.0428 0H109.96C110.073 0 110.182 0.0422759 110.262 0.117525C110.343 0.192774 110.388 0.294834 110.388 0.401252V2.08081C110.388 2.30233 110.196 2.48206 109.96 2.48206H99.0428C98.9866 2.48206 98.9309 2.47169 98.879 2.45152C98.8271 2.43136 98.7799 2.4018 98.7401 2.36454C98.7004 2.32728 98.6689 2.28304 98.6474 2.23436C98.6258 2.18568 98.6148 2.1335 98.6148 2.08081V0.401252C98.6148 0.348559 98.6258 0.296383 98.6474 0.247701C98.6689 0.199019 98.7004 0.154785 98.7401 0.117525C98.7799 0.0802655 98.8271 0.0507126 98.879 0.0305478C98.9309 0.0103831 98.9866 0 99.0428 0Z" fill="#FF8A42"/>
<path d="M88.1323 4.16826H120.87C121.261 4.16826 121.635 4.02291 121.911 3.76416C122.187 3.50542 122.342 3.15449 122.342 2.78857V3.23375C122.342 3.59967 122.187 3.9506 121.911 4.20934C121.635 4.46808 121.261 4.61344 120.87 4.61344H88.1323C87.939 4.61344 87.7477 4.57775 87.5691 4.50841C87.3906 4.43907 87.2284 4.33744 87.0917 4.20932C86.9551 4.08121 86.8467 3.92911 86.7728 3.76172C86.6988 3.59433 86.6608 3.41492 86.6608 3.23375V2.78857C86.6608 2.96975 86.6988 3.14916 86.7728 3.31655C86.8467 3.48394 86.9551 3.63603 87.0917 3.76415C87.2284 3.89227 87.3906 3.9939 87.5691 4.06324C87.7477 4.13258 87.939 4.16826 88.1323 4.16826Z" fill="#CCCCCC"/>
<path d="M88.0815 4.42163H120.82C121.21 4.42163 121.584 4.56699 121.86 4.82573C122.136 5.08447 122.291 5.4354 122.291 5.80132V6.41435C122.291 6.78027 122.136 7.1312 121.86 7.38994C121.584 7.64868 121.21 7.79404 120.82 7.79404H88.0815C87.8883 7.79404 87.6969 7.75835 87.5183 7.68901C87.3398 7.61967 87.1776 7.51804 87.0409 7.38992C86.9043 7.26181 86.7959 7.10971 86.722 6.94232C86.648 6.77493 86.61 6.59552 86.61 6.41435V5.80132C86.61 5.62015 86.648 5.44074 86.722 5.27335C86.7959 5.10596 86.9043 4.95386 87.0409 4.82575C87.1776 4.69763 87.3398 4.596 87.5183 4.52666C87.6969 4.45732 87.8883 4.42163 88.0815 4.42163Z" fill="#FF9D66"/>
<path d="M128.046 114C57.3283 114 0.000244141 110.884 0.000244141 107.042C0.000244141 103.199 57.3283 100.083 128.046 100.083C198.764 100.083 256.092 103.199 256.092 107.042C256.092 110.884 198.764 114 128.046 114Z" fill="#242220"/>
<path d="M221.812 3.69935V15.3793H218.46V5.81768C218.46 3.79622 216.712 2.15727 214.555 2.15727H198.582V15.3793H195.23V2.15727H175.352V15.3793H172.001V2.15727H152.123V15.3793H148.771V2.15727H135.456C133.299 2.15727 131.551 3.79598 131.551 5.81768V15.3793H128.2V3.69935C128.2 1.65629 129.967 0.000244141 132.146 0.000244141H217.866C220.045 0.000244141 221.812 1.65629 221.812 3.69935Z" fill="#FF8500"/>
<path d="M249.067 75.9458H66.1156V89.9295H249.067V75.9458Z" fill="#333333"/>
<path d="M249.067 75.946H66.1158V77.8476H249.067V75.946Z" fill="black"/>
<path d="M119.617 7.79419H89.2836V14.63H119.617V7.79419Z" fill="#FF8500"/>
<path d="M134.083 77.8476V78.0015H134.267V89.6459H134.083V89.8838H80.87V77.8474L134.083 77.8476ZM112.756 80.5769H105.006V87.1548H112.756V80.5769ZM114.776 87.1548H122.527V80.5769H114.776V87.1548ZM102.986 80.5769H95.235V87.1548H102.986V80.5769ZM131.773 80.5769H124.546V87.1548H131.773V80.5769ZM83.3642 87.1548H93.2157V80.5769H83.3642V87.1548Z" fill="#808080"/>
<path d="M66.1161 69.7759V70.0594L65.8912 70.0062C65.6101 69.9355 65.3094 69.8645 65.0283 69.7937C61.6135 68.9611 58.5551 68.6776 55.8535 68.784C55.8535 68.7662 55.8347 68.784 55.8347 68.784C44.9721 69.1738 39.6061 75.8346 37.2796 80.0508L37.2609 80.0686C37.2234 80.1218 37.2046 80.1572 37.1857 80.2104C36.1536 82.106 35.7598 87.1546 35.7598 87.1546L2.38247 86.6765V85.33L2.47642 71.2995L2.49519 69.1206L6.60391 51.5116L11.8572 17.8169C20.6939 11.404 31.557 12.0242 31.557 12.0242L57.7107 11.7231C60.1309 12.8037 61.7629 13.7603 62.8325 14.5576C63.8456 15.3192 64.3898 15.9394 64.6899 16.4C64.8966 16.7188 64.9903 16.967 65.0093 17.1441C65.0281 17.2504 65.0463 17.3212 65.0463 17.3744C65.0463 17.3922 65.0281 17.4098 65.0281 17.4098L65.6468 47.7206V47.827L65.8909 59.413V59.8382L66.1161 69.7759Z" fill="#E6E6E6"/>
<path d="M13.4204 19.339C17.726 16.2389 23.0544 17.357 23.0544 17.357L21.3859 46.6797L9.06093 46.07L13.4204 19.339Z" fill="#2A2933"/>
<path d="M14.0624 20.6077C17.4076 17.7899 21.5472 18.8061 21.5472 18.8061L20.251 45.4601L10.6755 44.9058L14.0624 20.6077Z" fill="#504E61"/>
<path d="M26.5158 46.0359L59.1267 41.3439L59.4372 18.4697L29.4661 18.323C24.497 35.1853 26.5158 46.0359 26.5158 46.0359Z" fill="#2A2933"/>
<path d="M28.4673 43.8673L56.4437 39.8419L56.7101 20.2186L30.9985 20.0928C26.7355 34.5587 28.4673 43.8673 28.4673 43.8673Z" fill="#504E61"/>
<path d="M13.2455 73.5316V83.098C13.2455 84.3381 12.1759 85.3301 10.8815 85.3301H2.38235L2.4763 71.2996H10.8815C12.1759 71.2993 13.2455 72.2915 13.2455 73.5316Z" fill="#CCCCCC"/>
<path d="M10.874 72.3604H2.12668C1.44236 72.3604 0.887215 72.8844 0.887215 73.5306V83.0985C0.887215 83.7447 1.44236 84.2687 2.12668 84.2687H10.874C11.5589 84.2687 12.1135 83.7447 12.1135 83.0985V73.5306C12.1135 72.8844 11.5589 72.3604 10.874 72.3604Z" fill="#E6E6E6"/>
<path d="M7.41809 74.4585H1.57521C0.705488 74.4585 -0.000105858 75.1245 -0.000105858 75.946C-0.000105858 76.7675 0.705235 77.4334 1.57521 77.4334H7.41809C8.28832 77.4334 8.99341 76.7675 8.99341 75.946C8.99315 75.1245 8.28832 74.4585 7.41809 74.4585Z" fill="#FF8500"/>
<path d="M7.41814 74.4585H6.14141C5.9697 75.1041 5.37935 75.592 4.64234 75.592H0.0756826C0.0445309 75.7083 0.000185013 75.8204 0.000185013 75.946C0.000185013 76.7675 0.705557 77.4334 1.57553 77.4334H7.41838C8.28861 77.4334 8.99371 76.7675 8.99371 75.946C8.99321 75.1245 8.28836 74.4585 7.41814 74.4585Z" fill="#FF8500"/>
<path d="M7.84941 74.5405C7.96794 74.7495 8.05278 74.9771 8.05278 75.231C8.05278 76.0525 7.34744 76.7184 6.47722 76.7184H0.634329C0.481356 76.7184 0.343065 76.6745 0.203261 76.6361C0.468432 77.1038 0.974205 77.4333 1.57521 77.4333H7.41809C8.28832 77.4333 8.99341 76.7674 8.99341 75.9459C8.99315 75.2687 8.50512 74.7205 7.84941 74.5405Z" fill="#FF8500"/>
<path d="M7.41809 78.813H1.57521C0.705488 78.813 -0.000105858 79.479 -0.000105858 80.3005C-0.000105858 81.122 0.705235 81.7879 1.57521 81.7879H7.41809C8.28832 81.7879 8.99341 81.122 8.99341 80.3005C8.99315 79.479 8.28832 78.813 7.41809 78.813Z" fill="#FF8500"/>
<path d="M7.41814 78.813H6.14141C5.9697 79.4586 5.37935 79.9467 4.64234 79.9467H0.0756826C0.0445309 80.063 0.000185013 80.1751 0.000185013 80.3007C0.000185013 81.1222 0.705557 81.7882 1.57553 81.7882H7.41838C8.28861 81.7882 8.99371 81.1222 8.99371 80.3007C8.99321 79.479 8.28836 78.813 7.41814 78.813Z" fill="#FF8500"/>
<path d="M7.84941 78.895C7.96794 79.104 8.05278 79.3317 8.05278 79.5855C8.05278 80.407 7.34744 81.0729 6.47722 81.0729H0.634329C0.481356 81.0729 0.343065 81.029 0.203261 80.9905C0.468432 81.4583 0.974205 81.7878 1.57521 81.7878H7.41809C8.28832 81.7878 8.99341 81.1218 8.99341 80.3004C8.99315 79.6232 8.50512 79.075 7.84941 78.895Z" fill="#FF8500"/>
<path d="M61.7217 83.6399H26.8091V53.9841C26.8091 53.4345 27.042 52.9074 27.4566 52.5188C27.8711 52.1302 28.4334 51.9119 29.0196 51.9119H61.7217V83.6399Z" fill="#CCCCCC"/>
<path d="M77.1213 90.4385C76.6897 92.509 75.9148 94.5034 74.825 96.3492C72.8644 99.6732 69.9323 102.456 66.3471 104.329C63.9968 105.56 61.3648 106.393 58.5409 106.732C53.8045 107.297 49.2539 106.369 45.4227 104.329C43.6038 103.366 41.9488 102.154 40.5123 100.732C37.4726 97.7405 35.4222 93.8218 34.8825 89.3798C33.5516 78.4023 41.9874 68.3649 53.7268 66.9674C57.3483 66.5334 60.8674 66.9793 64.0333 68.121C68.6073 69.7699 72.4241 72.8635 74.8252 76.8683C76.1622 79.0982 77.0555 81.6076 77.3852 84.3193C77.4411 84.7936 77.4791 85.2696 77.4992 85.7464C77.5706 87.3189 77.4437 88.8938 77.1213 90.4385Z" fill="#1A1A21"/>
<path d="M45.0774 96.9607C39.2024 91.3151 39.3898 82.2116 45.4959 76.6273C51.602 71.043 61.3146 71.0927 67.1896 76.7382C73.0646 82.3838 72.8772 91.4874 66.7711 97.0717C60.665 102.656 50.9524 102.606 45.0774 96.9607Z" fill="#6E6E7D"/>
<path d="M47.8729 94.4041C43.4834 90.186 43.6233 83.3842 48.1856 79.2119C52.7478 75.0395 60.0046 75.0767 64.3941 79.2948C68.7837 83.5129 68.6437 90.3147 64.0815 94.487C59.5193 98.6594 52.2624 98.6222 47.8729 94.4041Z" fill="#BBBECC"/>
<path d="M56.1323 89.4293C54.6957 89.4293 53.531 88.2741 53.531 86.8492C53.531 85.4242 54.6957 84.269 56.1323 84.269C57.569 84.269 58.7336 85.4242 58.7336 86.8492C58.7336 88.2741 57.569 89.4293 56.1323 89.4293Z" fill="#1A1A21"/>
<path d="M52.1496 81.4702C51.7551 81.4702 51.4354 81.1531 51.4354 80.7619C51.4354 80.3708 51.7551 80.0537 52.1496 80.0537C52.544 80.0537 52.8638 80.3708 52.8638 80.7619C52.8638 81.1531 52.544 81.4702 52.1496 81.4702Z" fill="#1A1A21"/>
<path d="M60.6415 81.1716C60.247 81.1716 59.9273 80.8545 59.9273 80.4634C59.9273 80.0722 60.247 79.7551 60.6415 79.7551C61.0359 79.7551 61.3557 80.0722 61.3557 80.4634C61.3557 80.8545 61.0359 81.1716 60.6415 81.1716Z" fill="#1A1A21"/>
<path d="M64.0163 89.9302C63.6219 89.9302 63.3021 89.6131 63.3021 89.2219C63.3021 88.8308 63.6219 88.5137 64.0163 88.5137C64.4108 88.5137 64.7305 88.8308 64.7305 89.2219C64.7305 89.6131 64.4108 89.9302 64.0163 89.9302Z" fill="#1A1A21"/>
<path d="M54.9008 94.8381C54.5063 94.8381 54.1866 94.521 54.1866 94.1299C54.1866 93.7387 54.5063 93.4216 54.9008 93.4216C55.2952 93.4216 55.615 93.7387 55.615 94.1299C55.615 94.521 55.2952 94.8381 54.9008 94.8381Z" fill="#1A1A21"/>
<path d="M48.2469 89.2104C47.8524 89.2104 47.5326 88.8933 47.5326 88.5022C47.5326 88.111 47.8524 87.7939 48.2469 87.7939C48.6413 87.7939 48.9611 88.111 48.9611 88.5022C48.9611 88.8933 48.6413 89.2104 48.2469 89.2104Z" fill="#1A1A21"/>
<path d="M71.652 14.6826V71.299H241.186C245.54 71.299 249.067 67.993 249.067 63.9138V22.0678C249.067 17.9886 245.541 14.6826 241.186 14.6826H71.652Z" fill="#FF8500"/>
<path d="M249.067 60.4121V63.9127C249.067 67.9922 245.539 71.2991 241.187 71.2991H71.6507V67.7982H241.187C245.539 67.7985 249.067 64.4913 249.067 60.4121Z" fill="#FF8500"/>
<path d="M77.2297 14.6829C79.7396 20.921 82.9467 31.2346 82.734 44.2221C82.542 55.9493 79.636 65.3215 77.2297 71.2992H71.6508V14.6829H77.2297Z" fill="#FF8500"/>
<path d="M236.538 71.2993H66.1159V75.9462H236.538V71.2993Z" fill="#333333"/>
<path d="M86.61 22.3904L177.367 20.9621L222.745 20.2479L234.09 20.0694L236.926 20.0247L237.635 20.0136L237.99 20.0081C238.107 20.0072 238.212 20.0143 238.323 20.0167C238.543 20.0235 238.764 20.0233 238.982 20.0606C239.199 20.0903 239.421 20.1069 239.633 20.165C241.359 20.5174 242.925 21.55 243.882 22.9707C244.366 23.6832 244.694 24.4784 244.848 25.3103C244.936 25.7296 244.949 26.1428 244.961 26.5834L244.969 27.913L245.002 33.2311L245.068 43.8676L245.383 33.2352L245.54 27.9189L245.58 26.5898C245.584 26.1456 245.586 25.6686 245.507 25.2139C245.369 24.2902 245.038 23.4012 244.532 22.598C243.527 20.9875 241.814 19.7636 239.857 19.2973C239.616 19.2251 239.365 19.1956 239.116 19.1543C238.869 19.1057 238.616 19.0957 238.364 19.08C238.106 19.0601 237.869 19.0563 237.635 19.0541L236.926 19.043L234.09 18.9983L222.745 18.8198L177.367 18.1056L86.6097 16.6772L86.61 22.3904Z" fill="#666666"/>
<path d="M125.212 41.7561H89.2835V43.4737H125.212V41.7561ZM125.212 46.1585H89.2835V47.876H125.212V46.1585ZM125.212 50.5606H89.2835V52.2782H125.212V50.5606ZM125.212 54.9627H89.2835V56.6803H125.212V54.9627ZM125.212 59.3651H89.2835V61.0826H125.212V59.3651Z" fill="#1A1A21"/>
<path d="M141.743 61.9965C135.394 61.9965 130.247 57.1715 130.247 51.2197C130.247 45.2678 135.394 40.4429 141.743 40.4429C148.092 40.4429 153.239 45.2678 153.239 51.2197C153.239 57.1715 148.092 61.9965 141.743 61.9965Z" fill="#666666"/>
<path d="M134.978 52.9401C134.978 57.0906 137.704 58.8832 141.066 58.8832C144.428 58.8832 147.154 57.0906 147.154 52.9401C147.154 48.7897 141.066 42.9919 141.066 42.9919C141.066 42.9919 134.978 48.7897 134.978 52.9401Z" fill="#666666"/>
<path d="M136.332 52.9401C136.332 57.0906 139.057 58.8832 142.42 58.8832C145.782 58.8832 148.507 57.0906 148.507 52.9401C148.507 48.7897 142.42 42.9919 142.42 42.9919C142.42 42.9919 136.332 48.7897 136.332 52.9401Z" fill="#333333"/>
<path d="M136.884 52.94C136.884 54.757 137.425 56.1533 138.493 57.09C139.443 57.9241 140.801 58.3652 142.419 58.3652C143.49 58.3652 144.448 58.1719 145.248 57.7994C145.649 57.6145 146.019 57.3755 146.347 57.09C147.414 56.1533 147.955 54.757 147.955 52.94C147.955 51.3556 146.942 49.2062 145.025 46.7246C144.001 45.3988 142.965 44.3017 142.42 43.7466C141.69 44.4908 140.995 45.2649 140.338 46.0667C140.165 46.2785 139.99 46.4981 139.815 46.7246C137.897 49.2062 136.884 51.3556 136.884 52.94Z" fill="url(#paint0_radial_254_3128)"/>
<path d="M136.884 52.9399C136.884 54.7569 137.425 56.1532 138.493 57.0899C139.443 57.924 140.801 58.3651 142.419 58.3651C143.491 58.3651 144.448 58.1718 145.248 57.7993C145.203 57.8053 145.158 57.8102 145.113 57.8155C141.774 58.1894 138.841 56.7121 138.316 52.5911C138.066 50.6257 139.143 48.1346 140.338 46.0662C140.165 46.2779 139.99 46.4976 139.815 46.7241C137.897 49.2061 136.884 51.3556 136.884 52.9399Z" fill="#E6E7E8"/>
<path d="M143.869 47.1679C144.056 47.0476 144.271 47.1131 144.407 47.2629C145.689 48.6777 146.933 50.206 147.256 52.0879C147.347 52.6146 147.347 53.1514 147.258 53.6782C147.225 53.8719 147.001 53.9999 146.802 53.9626C146.589 53.9227 146.465 53.7292 146.498 53.535C146.639 52.7092 146.489 51.8668 146.17 51.0741C145.844 50.2652 145.343 49.5363 144.781 48.8408C144.457 48.4408 144.114 48.0552 143.767 47.6727C143.632 47.5231 143.709 47.2703 143.869 47.1679ZM145.734 55.7376C145.937 55.4985 146.086 55.2239 146.174 54.9299C146.228 54.7407 146.415 54.6053 146.63 54.6455C146.825 54.682 146.988 54.8829 146.933 55.0731C146.816 55.4892 146.607 55.8777 146.319 56.2134C146.188 56.3663 145.927 56.3746 145.773 56.2495C145.609 56.1168 145.603 55.891 145.734 55.7376Z" fill="#58595B"/>
<path d="M229.891 14.6826H233.15C233.25 14.2906 233.265 13.9366 233.276 13.75C233.349 12.3362 233.804 8.34903 235.047 6.44321C236.872 3.64252 241.896 3.0264 245.203 3.84528C246.085 4.06704 247.824 4.521 249.185 5.98355C250.284 7.16214 250.673 8.49767 250.817 9.01383C250.996 9.66249 251.276 14.2906 251.284 14.5122C251.328 15.4151 252.109 48.9783 252.342 64.2246C252.38 66.4873 256.129 66.4873 256.091 64.2246C255.849 48.4566 255.067 15.2285 255.033 14.5122C255.027 14.3391 255.093 12.8362 254.863 10.8465C254.678 9.28403 254.537 8.13796 253.957 6.77822C253.118 4.7995 251.858 3.55871 251.549 3.2586C249.401 1.20676 246.884 0.617463 245.791 0.363416C240.176 -0.950505 235.249 1.66903 234.032 2.35828C232.266 3.73773 231.445 5.14496 231.05 5.99423C230.396 7.39957 230.278 8.63537 230.054 10.9629C229.905 12.5244 229.884 13.8151 229.891 14.6826Z" fill="#FF8500"/>
<path d="M255.78 42.9912H249.066V52.0524H255.78V42.9912Z" fill="#FF8500"/>
<path d="M179.996 90.4385C179.564 92.509 178.79 94.5034 177.7 96.3492C175.739 99.6732 172.807 102.456 169.222 104.329C166.872 105.56 164.24 106.393 161.416 106.732C156.679 107.297 152.129 106.369 148.297 104.329C146.479 103.366 144.824 102.154 143.387 100.732C140.347 97.7405 138.297 93.8218 137.757 89.3798C136.426 78.4023 144.862 68.3649 156.602 66.9674C160.223 66.5334 163.742 66.9793 166.908 68.121C171.482 69.7699 175.299 72.8635 177.7 76.8683C179.037 79.0982 179.93 81.6076 180.26 84.3193C180.316 84.7936 180.354 85.2696 180.374 85.7464C180.445 87.3189 180.318 88.8938 179.996 90.4385Z" fill="#1A1A21"/>
<path d="M147.952 96.9605C142.077 91.3149 142.264 82.2113 148.37 76.627C154.476 71.0428 164.189 71.0924 170.064 76.738C175.939 82.3836 175.752 91.4872 169.646 97.0714C163.539 102.656 153.827 102.606 147.952 96.9605Z" fill="#6E6E7D"/>
<path d="M150.747 94.4039C146.358 90.1857 146.498 83.3839 151.06 79.2116C155.622 75.0393 162.879 75.0764 167.269 79.2945C171.658 83.5127 171.518 90.3145 166.956 94.4868C162.394 98.6591 155.137 98.622 150.747 94.4039Z" fill="#BBBECC"/>
<path d="M159.007 89.4293C157.57 89.4293 156.406 88.2741 156.406 86.8492C156.406 85.4242 157.57 84.269 159.007 84.269C160.444 84.269 161.608 85.4242 161.608 86.8492C161.608 88.2741 160.444 89.4293 159.007 89.4293Z" fill="#1A1A21"/>
<path d="M155.024 81.4702C154.63 81.4702 154.31 81.1531 154.31 80.7619C154.31 80.3708 154.63 80.0537 155.024 80.0537C155.419 80.0537 155.738 80.3708 155.738 80.7619C155.738 81.1531 155.419 81.4702 155.024 81.4702Z" fill="#1A1A21"/>
<path d="M163.516 81.1716C163.122 81.1716 162.802 80.8545 162.802 80.4634C162.802 80.0722 163.122 79.7551 163.516 79.7551C163.911 79.7551 164.23 80.0722 164.23 80.4634C164.23 80.8545 163.911 81.1716 163.516 81.1716Z" fill="#1A1A21"/>
<path d="M166.891 89.9302C166.497 89.9302 166.177 89.6131 166.177 89.2219C166.177 88.8308 166.497 88.5137 166.891 88.5137C167.286 88.5137 167.605 88.8308 167.605 89.2219C167.605 89.6131 167.286 89.9302 166.891 89.9302Z" fill="#1A1A21"/>
<path d="M157.776 94.8381C157.381 94.8381 157.062 94.521 157.062 94.1299C157.062 93.7387 157.381 93.4216 157.776 93.4216C158.17 93.4216 158.49 93.7387 158.49 94.1299C158.49 94.521 158.17 94.8381 157.776 94.8381Z" fill="#1A1A21"/>
<path d="M151.122 89.2104C150.727 89.2104 150.407 88.8933 150.407 88.5022C150.407 88.111 150.727 87.7939 151.122 87.7939C151.516 87.7939 151.836 88.111 151.836 88.5022C151.836 88.8933 151.516 89.2104 151.122 89.2104Z" fill="#1A1A21"/>
<path d="M231.238 90.4385C230.806 92.509 230.032 94.5034 228.942 96.3492C226.981 99.6732 224.049 102.456 220.464 104.329C218.114 105.56 215.482 106.393 212.658 106.732C207.921 107.297 203.371 106.369 199.539 104.329C197.721 103.366 196.066 102.154 194.629 100.732C191.589 97.7405 189.539 93.8218 188.999 89.3798C187.668 78.4023 196.104 68.3649 207.844 66.9674C211.465 66.5334 214.984 66.9793 218.15 68.121C222.724 69.7699 226.541 72.8635 228.942 76.8683C230.279 79.0982 231.172 81.6076 231.502 84.3193C231.558 84.7936 231.596 85.2696 231.616 85.7464C231.687 87.3189 231.56 88.8938 231.238 90.4385Z" fill="#1A1A21"/>
<path d="M199.194 96.9602C193.319 91.3147 193.506 82.2111 199.612 76.6268C205.718 71.0425 215.431 71.0922 221.306 76.7378C227.181 82.3833 226.994 91.4869 220.888 97.0712C214.781 102.655 205.069 102.606 199.194 96.9602Z" fill="#6E6E7D"/>
<path d="M201.989 94.4039C197.6 90.1857 197.74 83.3839 202.302 79.2116C206.864 75.0393 214.121 75.0764 218.511 79.2945C222.9 83.5127 222.76 90.3145 218.198 94.4868C213.636 98.6591 206.379 98.622 201.989 94.4039Z" fill="#BBBECC"/>
<path d="M210.249 89.4293C208.812 89.4293 207.648 88.2741 207.648 86.8492C207.648 85.4242 208.812 84.269 210.249 84.269C211.686 84.269 212.85 85.4242 212.85 86.8492C212.85 88.2741 211.686 89.4293 210.249 89.4293Z" fill="#1A1A21"/>
<path d="M206.266 81.4702C205.872 81.4702 205.552 81.1531 205.552 80.7619C205.552 80.3708 205.872 80.0537 206.266 80.0537C206.661 80.0537 206.98 80.3708 206.98 80.7619C206.98 81.1531 206.661 81.4702 206.266 81.4702Z" fill="#1A1A21"/>
<path d="M214.758 81.1716C214.364 81.1716 214.044 80.8545 214.044 80.4634C214.044 80.0722 214.364 79.7551 214.758 79.7551C215.153 79.7551 215.473 80.0722 215.473 80.4634C215.473 80.8545 215.153 81.1716 214.758 81.1716Z" fill="#1A1A21"/>
<path d="M218.133 89.9302C217.739 89.9302 217.419 89.6131 217.419 89.2219C217.419 88.8308 217.739 88.5137 218.133 88.5137C218.528 88.5137 218.847 88.8308 218.847 89.2219C218.847 89.6131 218.528 89.9302 218.133 89.9302Z" fill="#1A1A21"/>
<path d="M209.018 94.8381C208.623 94.8381 208.303 94.521 208.303 94.1299C208.303 93.7387 208.623 93.4216 209.018 93.4216C209.412 93.4216 209.732 93.7387 209.732 94.1299C209.732 94.521 209.412 94.8381 209.018 94.8381Z" fill="#1A1A21"/>
<path d="M202.364 89.2104C201.97 89.2104 201.65 88.8933 201.65 88.5022C201.65 88.111 201.97 87.7939 202.364 87.7939C202.758 87.7939 203.078 88.111 203.078 88.5022C203.078 88.8933 202.758 89.2104 202.364 89.2104Z" fill="#1A1A21"/>
<path d="M169.024 61.0828H246.978V61.0856L246.986 61.0828L250.44 68.9615L246.868 70.3377L244.046 63.9013H169.024V61.0828Z" fill="#333333"/>
<path d="M246.207 61.9242L246.2 61.9271V61.9242H169.024V61.0828H246.978V61.0856L246.986 61.0828L250.44 68.9615L249.458 69.3398L246.207 61.9242ZM253.473 80.6847V86.9834H249.067V88.0647H254.627V79.6035H249.067V80.6847H253.473Z" fill="black"/>
<path d="M86.1499 37.3545H84.4177V29.1718H87.6201C89.6829 29.1718 90.8795 30.1291 90.8795 31.8272C90.8795 32.9327 90.1957 33.8102 89.0333 34.1977L91.1416 37.3545H89.0788L87.2326 34.4598H86.1499V37.3545ZM86.1499 30.6078V33.0352H87.5403C88.5888 33.0352 89.1472 32.6249 89.1472 31.8272C89.1472 31.018 88.5888 30.6078 87.5403 30.6078H86.1499ZM94.5846 37.4571C92.7612 37.4571 91.5417 36.192 91.5417 34.2888C91.5417 32.4768 92.8067 31.1548 94.5618 31.1548C96.4878 31.1548 97.7642 32.7161 97.4793 34.6991H93.16C93.2626 35.6906 93.7413 36.2376 94.5504 36.2376C95.2456 36.2376 95.7129 35.8957 95.8952 35.2917H97.4679C97.126 36.6707 96.0661 37.4571 94.5846 37.4571ZM94.5276 32.3172C93.7868 32.3172 93.3196 32.7959 93.1828 33.6962H95.804C95.7584 32.8529 95.2798 32.3172 94.5276 32.3172ZM103.794 35.4057C103.794 36.6821 102.825 37.4685 101.093 37.4685C99.3609 37.4685 98.3922 36.6365 98.2668 35.2803H99.7826C99.794 35.9071 100.33 36.306 101.116 36.306C101.731 36.306 102.199 36.1123 102.199 35.6792C102.199 35.2917 101.948 35.1322 101.367 35.0182L100.273 34.8131C99.1785 34.6193 98.5175 34.0153 98.5175 33.0694C98.5175 31.9412 99.4863 31.1548 101.002 31.1548C102.529 31.1548 103.578 31.964 103.692 33.2745H102.176C102.119 32.6819 101.674 32.3172 101.002 32.3172C100.421 32.3172 100.033 32.5338 100.033 32.9213C100.033 33.2859 100.284 33.4341 100.831 33.5367L102.005 33.7532C103.19 33.9811 103.794 34.5282 103.794 35.4057ZM108.83 37.5254C106.471 37.5254 104.648 35.702 104.648 33.2518C104.648 30.8015 106.471 29.0009 108.83 29.0009C111.201 29.0009 113.036 30.8015 113.036 33.2518C113.036 34.8587 112.249 36.192 111.041 36.9214L112.409 39.4287H110.654L109.56 37.4685C109.32 37.5026 109.081 37.5254 108.83 37.5254ZM108.83 35.9755C110.335 35.9755 111.246 34.7561 111.246 33.2518C111.246 31.7474 110.335 30.5508 108.83 30.5508C107.337 30.5508 106.426 31.7474 106.426 33.2518C106.426 34.7561 107.337 35.9755 108.83 35.9755ZM117.407 34.927H113.931V33.5139H117.407V34.927ZM119.433 37.3545H117.405L119.969 33.172L117.667 29.1718H119.684L121.279 32.1007L122.978 29.1718H124.915L122.533 33.2404L125.063 37.3545H123.023L121.234 34.2774L119.433 37.3545Z" fill="white"/>
<path d="M203.676 57.061H201.944V48.8784H205.146C207.209 48.8784 208.406 49.8357 208.406 51.5337C208.406 52.6392 207.722 53.5167 206.56 53.9042L208.668 57.061H206.605L204.759 54.1663H203.676V57.061ZM203.676 50.3143V52.7418H205.067C206.115 52.7418 206.674 52.3315 206.674 51.5337C206.674 50.7246 206.115 50.3143 205.067 50.3143H203.676ZM212.111 57.1636C210.287 57.1636 209.068 55.8986 209.068 53.9954C209.068 52.1833 210.333 50.8613 212.088 50.8613C214.014 50.8613 215.291 52.4227 215.006 54.4057H210.686C210.789 55.3971 211.268 55.9442 212.077 55.9442C212.772 55.9442 213.239 55.6023 213.422 54.9983H214.994C214.652 56.3772 213.592 57.1636 212.111 57.1636ZM212.054 52.0238C211.313 52.0238 210.846 52.5024 210.709 53.4028H213.33C213.285 52.5594 212.806 52.0238 212.054 52.0238ZM221.32 55.1122C221.32 56.3886 220.352 57.175 218.619 57.175C216.887 57.175 215.918 56.3431 215.793 54.9869H217.309C217.32 55.6137 217.856 56.0126 218.642 56.0126C219.258 56.0126 219.725 55.8188 219.725 55.3858C219.725 54.9983 219.474 54.8387 218.893 54.7248L217.799 54.5196C216.705 54.3259 216.044 53.7219 216.044 52.776C216.044 51.6477 217.013 50.8613 218.528 50.8613C220.055 50.8613 221.104 51.6705 221.218 52.9811H219.702C219.645 52.3885 219.201 52.0238 218.528 52.0238C217.947 52.0238 217.56 52.2403 217.56 52.6278C217.56 52.9925 217.81 53.1406 218.357 53.2432L219.531 53.4597C220.716 53.6877 221.32 54.2347 221.32 55.1122ZM226.357 57.232C223.997 57.232 222.174 55.4085 222.174 52.9583C222.174 50.5081 223.997 48.7074 226.357 48.7074C228.727 48.7074 230.562 50.5081 230.562 52.9583C230.562 54.5652 229.775 55.8986 228.567 56.628L229.935 59.1352H228.18L227.086 57.175C226.847 57.2092 226.607 57.232 226.357 57.232ZM226.357 55.6821C227.861 55.6821 228.773 54.4626 228.773 52.9583C228.773 51.454 227.861 50.2573 226.357 50.2573C224.864 50.2573 223.952 51.454 223.952 52.9583C223.952 54.4626 224.864 55.6821 226.357 55.6821ZM234.933 54.6336H231.458V53.2204H234.933V54.6336ZM236.96 57.061H234.931L237.495 52.8785L235.193 48.8784H237.21L238.806 51.8073L240.504 48.8784H242.441L240.059 52.9469L242.589 57.061H240.549L238.76 53.984L236.96 57.061Z" fill="white"/>
</g>
<defs>
<radialGradient id="paint0_radial_254_3128" cx="0" cy="0" r="1" gradientUnits="userSpaceOnUse" gradientTransform="translate(142.42 51.056) rotate(180) scale(6.76147 6.33859)">
<stop stop-color="#B3B3B3"/>
<stop offset="1" stop-color="#4D4D4D"/>
</radialGradient>
</defs>
</svg>
