<svg width="22" height="48" viewBox="0 0 22 48" fill="none" xmlns="http://www.w3.org/2000/svg">
<path d="M4.81262 21.2501C4.81209 21.1596 4.82944 21.0699 4.86365 20.9861C4.89786 20.9024 4.94827 20.8262 5.01199 20.762C5.0759 20.6975 5.15194 20.6464 5.23572 20.6115C5.3195 20.5766 5.40936 20.5586 5.50012 20.5586C5.59087 20.5586 5.68074 20.5766 5.76451 20.6115C5.84829 20.6464 5.92433 20.6975 5.98824 20.762L11.0001 25.7807L16.012 20.762C16.1415 20.6325 16.317 20.5598 16.5001 20.5598C16.5908 20.5598 16.6805 20.5776 16.7643 20.6123C16.848 20.647 16.9241 20.6979 16.9882 20.762C17.0523 20.8261 17.1032 20.9022 17.1379 20.9859C17.1726 21.0697 17.1904 21.1594 17.1904 21.2501C17.1904 21.4332 17.1177 21.6087 16.9882 21.7382L11.4882 27.2382C11.4243 27.3026 11.3483 27.3538 11.2645 27.3887C11.1807 27.4236 11.0909 27.4416 11.0001 27.4416C10.9094 27.4416 10.8195 27.4236 10.7357 27.3887C10.6519 27.3538 10.5759 27.3026 10.512 27.2382L5.01199 21.7382C4.94827 21.674 4.89786 21.5978 4.86365 21.514C4.82944 21.4303 4.81209 21.3406 4.81262 21.2501Z" fill="#CCC8C4"/>
</svg>
