<svg width="248" height="147" viewBox="0 0 248 147" fill="none" xmlns="http://www.w3.org/2000/svg">
<g opacity="0.7">
<g clip-path="url(#clip0_279_3965)">
<rect x="129.357" width="159" height="228" rx="14" transform="rotate(25 129.357 0)" fill="#FF8500"/>
<g filter="url(#filter0_f_279_3965)">
<path d="M210.018 37.6133L274.162 67.524L248.171 123.262L210.018 37.6133Z" fill="#6E1E00"/>
</g>
<path d="M130.31 35.0856L128.382 34.1862L132.63 25.076L136.195 26.7386C138.492 27.8095 139.327 29.4966 138.446 31.3871C137.872 32.6179 136.655 33.2399 135.16 33.0678L135.868 37.6771L133.571 36.6061L133.019 32.4248L131.813 31.8627L130.31 35.0856ZM133.813 27.5741L132.553 30.2767L134.101 30.9985C135.268 31.5429 136.103 31.376 136.517 30.4878C136.937 29.5869 136.528 28.8402 135.361 28.2959L133.813 27.5741ZM139.648 39.5787C137.618 38.6321 136.917 36.5906 137.905 34.4716C138.846 32.4542 140.94 31.6391 142.894 32.5503C145.039 33.5502 145.649 35.9511 144.303 38.011L139.494 35.7686C139.093 36.9257 139.342 37.7832 140.243 38.2033C141.017 38.5642 141.715 38.4262 142.231 37.8484L143.982 38.6649C142.886 40.0226 141.297 40.3479 139.648 39.5787ZM142.253 33.8267C141.428 33.4421 140.659 33.7325 140.04 34.6638L142.958 36.0247C143.345 35.0621 143.09 34.2172 142.253 33.8267ZM150.966 42.0761C150.304 43.4972 148.817 43.8698 146.888 42.9704C144.96 42.0711 144.313 40.6419 144.878 39.0669L146.565 39.8539C146.252 40.5576 146.642 41.2798 147.517 41.6881C148.202 42.0076 148.823 42.0344 149.048 41.5523C149.249 41.1209 149.053 40.8131 148.465 40.3844L147.353 39.5881C146.236 38.8043 145.814 37.7887 146.305 36.7356C146.89 35.4794 148.377 35.1069 150.065 35.8938C151.765 36.6866 152.512 38.1318 151.959 39.6501L150.271 38.8632C150.515 38.1738 150.21 37.5371 149.461 37.188C148.814 36.8862 148.27 36.9261 148.069 37.3575C147.88 37.7636 148.082 38.0587 148.638 38.4569L149.832 39.3074C151.033 40.1765 151.422 41.0991 150.966 42.0761ZM155.473 47.0507C152.846 45.8259 151.763 42.8491 153.035 40.1211C154.307 37.3932 157.272 36.3351 159.898 37.5598C162.538 38.7905 163.646 41.7478 162.374 44.4758C161.539 46.2649 159.972 47.3411 158.248 47.526L158.469 51.0275L156.515 50.1163L156.314 47.3659C156.03 47.2797 155.752 47.1808 155.473 47.0507ZM156.277 45.3251C157.952 46.1061 159.6 45.2217 160.381 43.5469C161.162 41.872 160.769 40.0664 159.094 39.2854C157.432 38.5103 155.795 39.3693 155.014 41.0441C154.233 42.719 154.615 44.55 156.277 45.3251ZM166.371 48.6106L162.501 46.806L163.235 45.2326L167.105 47.0372L166.371 48.6106ZM167.366 52.3651L165.108 51.3119L170.134 47.9865L169.648 42.3378L171.894 43.385L172.15 47.4742L175.561 45.0949L177.718 46.1008L172.954 49.3939L173.634 55.2879L171.363 54.2288L170.969 49.874L167.366 52.3651Z" fill="white"/>
</g>
<rect x="129.405" y="0.132893" width="158.8" height="227.8" rx="13.9" transform="rotate(25 129.405 0.132893)" stroke="#6E1E00" stroke-width="0.2"/>
<g clip-path="url(#clip1_279_3965)">
<rect x="59.0107" y="33" width="159" height="228" rx="14" transform="rotate(15 59.0107 33)" fill="#FF8500"/>
<g filter="url(#filter1_f_279_3965)">
<path d="M144.978 56.0352L213.341 74.353L197.424 133.757L144.978 56.0352Z" fill="#6E1E00"/>
</g>
<path d="M68.2276 77.9156L66.1721 77.3649L68.7737 67.6554L72.5737 68.6736C75.0213 69.3294 76.1369 70.8458 75.597 72.8607C75.2455 74.1725 74.1551 74.9963 72.6526 75.0865L74.1506 79.5027L71.703 78.8469L70.4326 74.825L69.1479 74.4808L68.2276 77.9156ZM70.3727 69.91L69.6009 72.7904L71.2507 73.2325C72.4948 73.5659 73.2879 73.2566 73.5415 72.31C73.7988 71.3498 73.2666 70.6855 72.0225 70.3521L70.3727 69.91ZM78.2034 80.7191C76.0398 80.1394 74.995 78.2506 75.6001 75.9923C76.1763 73.8421 78.0976 72.6756 80.1802 73.2337C82.4656 73.846 83.4837 76.1045 82.5152 78.3669L77.39 76.9936C77.1964 78.2027 77.5905 79.004 78.5506 79.2613C79.3755 79.4823 80.0386 79.2252 80.447 78.5664L82.3132 79.0665C81.4691 80.5941 79.9614 81.1902 78.2034 80.7191ZM79.77 74.6021C78.891 74.3666 78.1844 74.786 77.7359 75.8108L80.8461 76.6442C81.0602 75.629 80.6625 74.8413 79.77 74.6021ZM89.7836 81.2131C89.3778 82.7277 87.9783 83.3528 85.9228 82.802C83.8673 82.2512 82.9824 80.9561 83.2648 79.307L85.0634 79.7889C84.8776 80.5363 85.3864 81.1799 86.3194 81.4299C87.0497 81.6256 87.6657 81.5442 87.8034 81.0304C87.9266 80.5706 87.6798 80.3016 87.0264 79.9815L85.7934 79.3903C84.5568 78.8125 83.9645 77.8856 84.2653 76.7632C84.624 75.4245 86.0235 74.7994 87.822 75.2813C89.6341 75.7668 90.6209 77.0603 90.3395 78.6517L88.5409 78.1698C88.6617 77.4485 88.2503 76.8744 87.4524 76.6606C86.7628 76.4758 86.2341 76.6096 86.1109 77.0694C85.995 77.5021 86.2454 77.7576 86.8619 78.0532L88.1859 78.6834C89.5198 79.3307 90.0626 80.1718 89.7836 81.2131ZM95.0854 85.3296C92.2862 84.5795 90.7022 81.8361 91.4813 78.9287C92.2603 76.0212 94.9965 74.4643 97.7958 75.2144C100.609 75.9681 102.213 78.6881 101.434 81.5955C100.923 83.5023 99.5662 84.8344 97.9009 85.3158L98.7265 88.7257L96.644 88.1677L95.969 85.4939C95.6741 85.4583 95.3829 85.4093 95.0854 85.3296ZM95.5782 83.4905C97.3632 83.9688 98.8328 82.8117 99.3111 81.0266C99.7894 79.2416 99.088 77.5318 97.303 77.0535C95.5315 76.5789 94.0692 77.7089 93.5909 79.4939C93.1126 81.2789 93.8067 83.0158 95.5782 83.4905ZM106.089 84.9733L101.964 83.8682L102.414 82.1913L106.538 83.2965L106.089 84.9733ZM107.721 88.4979L105.314 87.8529L109.687 83.7053L108.227 78.2268L110.62 78.8681L111.582 82.8508L114.528 79.9153L116.827 80.5313L112.707 84.6017L114.402 90.2879L111.981 89.6393L110.836 85.4192L107.721 88.4979Z" fill="white"/>
</g>
<rect x="59.0815" y="33.1225" width="158.8" height="227.8" rx="13.9" transform="rotate(15 59.0815 33.1225)" stroke="#6E1E00" stroke-width="0.2"/>
</g>
<defs>
<filter id="filter0_f_279_3965" x="190.018" y="17.6133" width="104.144" height="125.648" filterUnits="userSpaceOnUse" color-interpolation-filters="sRGB">
<feFlood flood-opacity="0" result="BackgroundImageFix"/>
<feBlend mode="normal" in="SourceGraphic" in2="BackgroundImageFix" result="shape"/>
<feGaussianBlur stdDeviation="10" result="effect1_foregroundBlur_279_3965"/>
</filter>
<filter id="filter1_f_279_3965" x="124.978" y="36.0352" width="108.363" height="117.723" filterUnits="userSpaceOnUse" color-interpolation-filters="sRGB">
<feFlood flood-opacity="0" result="BackgroundImageFix"/>
<feBlend mode="normal" in="SourceGraphic" in2="BackgroundImageFix" result="shape"/>
<feGaussianBlur stdDeviation="10" result="effect1_foregroundBlur_279_3965"/>
</filter>
<clipPath id="clip0_279_3965">
<rect x="129.357" width="159" height="228" rx="14" transform="rotate(25 129.357 0)" fill="white"/>
</clipPath>
<clipPath id="clip1_279_3965">
<rect x="59.0107" y="33" width="159" height="228" rx="14" transform="rotate(15 59.0107 33)" fill="white"/>
</clipPath>
</defs>
</svg>
