<svg width="40" height="41" viewBox="0 0 40 41" fill="none" xmlns="http://www.w3.org/2000/svg">
<rect y="0.5" width="40" height="40" rx="20" fill="#F1F1F1"/>
<path d="M15.3333 9.3335V12.8335" stroke="#FF8500" stroke-width="1.5" stroke-miterlimit="10" stroke-linecap="round" stroke-linejoin="round"/>
<path d="M24.6667 9.3335V12.8335" stroke="#FF8500" stroke-width="1.5" stroke-miterlimit="10" stroke-linecap="round" stroke-linejoin="round"/>
<path d="M10.0833 17.605H29.9167" stroke="#FF8500" stroke-width="1.5" stroke-miterlimit="10" stroke-linecap="round" stroke-linejoin="round"/>
<path d="M30.5 16.9168V26.8335C30.5 30.3335 28.75 32.6668 24.6667 32.6668H15.3333C11.25 32.6668 9.5 30.3335 9.5 26.8335V16.9168C9.5 13.4168 11.25 11.0835 15.3333 11.0835H24.6667C28.75 11.0835 30.5 13.4168 30.5 16.9168Z" stroke="#FF8500" stroke-width="1.5" stroke-miterlimit="10" stroke-linecap="round" stroke-linejoin="round"/>
<path d="M24.3105 22.9832H24.321" stroke="#FF8500" stroke-width="1.5" stroke-linecap="round" stroke-linejoin="round"/>
<path d="M24.3105 26.4832H24.321" stroke="#FF8500" stroke-width="1.5" stroke-linecap="round" stroke-linejoin="round"/>
<path d="M19.9947 22.9832H20.0052" stroke="#FF8500" stroke-width="1.5" stroke-linecap="round" stroke-linejoin="round"/>
<path d="M19.9947 26.4832H20.0052" stroke="#FF8500" stroke-width="1.5" stroke-linecap="round" stroke-linejoin="round"/>
<path d="M15.6767 22.9832H15.6872" stroke="#FF8500" stroke-width="1.5" stroke-linecap="round" stroke-linejoin="round"/>
<path d="M15.6767 26.4832H15.6872" stroke="#FF8500" stroke-width="1.5" stroke-linecap="round" stroke-linejoin="round"/>
</svg>
